<svg xmlns="http://www.w3.org/2000/svg" width="512" height="512" viewBox="0 0 512 512">
  <rect width="512" height="512" rx="84" fill="#151b20"/>
  <ellipse cx="256" cy="450" rx="128" ry="24" fill="#000" opacity=".28"/>
  <rect x="194" y="238" width="124" height="126" fill="#162b55"/>
  <rect x="180" y="354" width="152" height="28" fill="#08090b"/>
  <rect x="202" y="382" width="42" height="66" fill="#101d3a"/>
  <rect x="268" y="382" width="42" height="66" fill="#101d3a"/>
  <rect x="186" y="446" width="66" height="22" fill="#06070a"/>
  <rect x="260" y="446" width="66" height="22" fill="#06070a"/>
  <rect x="150" y="246" width="34" height="122" fill="#0f1f40"/>
  <rect x="328" y="246" width="34" height="122" fill="#0f1f40"/>
  <rect x="206" y="172" width="100" height="80" fill="#c7835c"/>
  <rect x="176" y="152" width="160" height="38" fill="#10264d"/>
  <rect x="198" y="110" width="116" height="50" fill="#162b55"/>
  <rect x="182" y="70" width="148" height="40" fill="#10264d"/>
  <rect x="210" y="42" width="92" height="46" fill="#1d376d"/>
  <rect x="170" y="94" width="172" height="22" fill="#1d376d"/>
  <rect x="214" y="178" width="84" height="18" fill="#10141b"/>
  <rect x="268" y="268" width="28" height="36" fill="#f2c34e"/>
  <rect x="310" y="274" width="22" height="52" fill="#b11522"/>
</svg>