<svg xmlns="http://www.w3.org/2000/svg" width="1024" height="1024" viewBox="0 0 1024 1024">
  <rect width="1024" height="1024" fill="#111416"/>
  <rect x="240" y="116" width="544" height="792" rx="36" fill="#1a2229"/>
  <ellipse cx="512" cy="884" rx="238" ry="46" fill="#000" opacity=".32"/>
  <rect x="386" y="470" width="252" height="250" fill="#162b55"/>
  <rect x="360" y="710" width="304" height="54" fill="#08090b"/>
  <rect x="400" y="758" width="78" height="130" fill="#101d3a"/>
  <rect x="546" y="758" width="78" height="130" fill="#101d3a"/>
  <rect x="378" y="882" width="112" height="44" fill="#06070a"/>
  <rect x="534" y="882" width="112" height="44" fill="#06070a"/>
  <rect x="312" y="486" width="58" height="238" fill="#0f1f40"/>
  <rect x="654" y="486" width="58" height="238" fill="#0f1f40"/>
  <rect x="300" y="712" width="76" height="64" fill="#c7835c"/>
  <rect x="648" y="712" width="76" height="64" fill="#c7835c"/>
  <rect x="422" y="372" width="180" height="154" fill="#c7835c"/>
  <rect x="356" y="330" width="312" height="72" fill="#10264d"/>
  <rect x="392" y="254" width="240" height="104" fill="#162b55"/>
  <rect x="450" y="184" width="124" height="72" fill="#c7835c"/>
  <rect x="374" y="130" width="276" height="76" fill="#10264d"/>
  <rect x="410" y="82" width="204" height="84" fill="#1d376d"/>
  <rect x="336" y="178" width="352" height="40" fill="#1d376d"/>
  <rect x="428" y="384" width="168" height="34" fill="#10141b"/>
  <rect x="430" y="540" width="72" height="92" fill="#747f8c"/>
  <rect x="536" y="540" width="54" height="70" fill="#f2c34e"/>
  <rect x="626" y="548" width="42" height="98" fill="#b11522"/>
</svg>